<?xml version="1.0" standalone="no"?>
<!DOCTYPE svg PUBLIC "-//W3C//DTD SVG 20010904//EN"
 "http://www.w3.org/TR/2001/REC-SVG-20010904/DTD/svg10.dtd">
<svg version="1.0" xmlns="http://www.w3.org/2000/svg"
 width="1500.000000pt" height="1500.000000pt" viewBox="0 0 1500.000000 1500.000000"
 preserveAspectRatio="xMidYMid meet">
<metadata>
Created by potrace 1.14, written by Peter Selinger 2001-2017
</metadata>
<g transform="translate(0.000000,1500.000000) scale(0.100000,-0.100000)"
fill="#000000" stroke="none">
<path d="M0 14930 c0 -40 3 -71 6 -68 7 8 7 128 0 136 -4 3 -6 -28 -6 -68z"/>
<path d="M2 14820 c0 -14 2 -19 5 -12 2 6 2 18 0 25 -3 6 -5 1 -5 -13z"/>
<path d="M7984 12532 c-3 -9 -10 -25 -14 -34 -6 -10 -6 -39 -1 -70 5 -29 12
-72 14 -95 l5 -42 -46 5 c-24 2 -50 8 -57 14 -13 11 -119 13 -225 5 -36 -3
-100 -5 -142 -4 -43 0 -95 -5 -115 -10 -21 -5 -72 -12 -113 -16 -64 -5 -112
-11 -255 -30 -11 -2 -49 -8 -85 -15 -36 -7 -119 -14 -185 -15 -102 -2 -120 -5
-123 -19 -4 -19 30 -94 69 -152 l28 -42 -26 -18 c-14 -11 -40 -35 -57 -54 -17
-19 -43 -47 -58 -63 -16 -16 -28 -33 -28 -38 0 -5 -4 -9 -9 -9 -5 0 -13 -9
-16 -20 -3 -11 -11 -20 -16 -20 -9 0 -81 -75 -87 -91 -2 -5 -23 -28 -46 -51
-23 -24 -53 -61 -66 -82 -13 -22 -41 -55 -62 -74 -21 -19 -38 -40 -38 -47 0
-7 -13 -23 -29 -36 -16 -13 -43 -46 -62 -74 -18 -27 -35 -52 -39 -55 -3 -3
-14 -22 -25 -42 -11 -21 -22 -38 -26 -38 -6 0 -43 -111 -63 -185 -3 -11 -8
-58 -11 -105 -3 -47 -11 -100 -16 -117 -6 -18 -8 -36 -6 -40 2 -5 1 -37 -4
-73 -5 -36 -9 -103 -10 -149 -1 -46 -5 -97 -9 -112 -10 -35 22 -84 49 -75 10
4 8 -1 -6 -13 -13 -11 -23 -24 -23 -31 0 -6 -11 -23 -25 -38 -35 -37 -32 -64
12 -102 31 -28 34 -34 20 -42 -9 -5 -17 -13 -17 -19 0 -5 -15 -26 -32 -45 -18
-20 -37 -42 -41 -50 -7 -12 -13 -11 -36 5 -35 25 -47 16 -53 -41 -4 -37 -1
-55 19 -89 l24 -43 -39 -56 c-21 -30 -46 -75 -56 -100 -10 -25 -21 -49 -26
-55 -5 -5 -10 -30 -13 -55 -3 -25 -9 -68 -12 -97 -4 -29 -4 -60 0 -70 5 -10
10 -34 12 -53 5 -53 8 -69 16 -76 4 -4 7 -17 7 -28 1 -12 9 -39 20 -61 11 -22
19 -43 20 -47 0 -4 14 -30 30 -56 17 -27 30 -58 30 -69 0 -11 9 -32 20 -46 11
-14 20 -32 20 -40 0 -8 11 -34 24 -58 13 -24 27 -59 31 -77 4 -19 17 -40 32
-49 27 -18 119 -46 143 -43 8 0 28 1 43 1 15 0 38 4 51 9 25 9 22 12 115 -85
27 -27 96 -90 155 -140 122 -103 197 -170 178 -160 -7 4 -16 -4 -22 -22 -19
-52 -53 -108 -87 -142 -18 -19 -33 -38 -33 -41 0 -26 54 -34 107 -16 19 6 23
3 29 -21 27 -110 106 -180 239 -212 26 -6 30 -11 27 -37 -2 -16 -14 -38 -27
-49 -27 -22 -33 -56 -12 -72 19 -16 79 -14 105 3 13 9 26 13 29 10 3 -3 13 -1
23 4 13 7 23 3 40 -15 13 -14 29 -25 35 -25 6 0 22 -11 35 -25 13 -14 31 -25
39 -25 24 -1 87 -61 94 -90 4 -14 0 -48 -8 -75 -31 -108 -72 -223 -94 -264
-31 -59 -443 -60 -786 -2 -52 9 -153 8 -218 -3 -49 -8 -132 -50 -150 -76 -7
-11 -32 -33 -55 -50 -23 -16 -52 -47 -66 -67 -13 -21 -43 -59 -67 -84 -54 -57
-119 -139 -119 -150 0 -4 -8 -10 -18 -13 -9 -3 -23 -20 -31 -37 -7 -17 -31
-48 -52 -70 -22 -22 -39 -43 -39 -48 0 -4 -22 -31 -49 -60 -27 -29 -56 -66
-63 -82 -8 -16 -33 -49 -56 -73 -23 -25 -42 -47 -42 -50 0 -2 -34 -38 -75 -79
-99 -100 -100 -113 -7 -210 37 -39 75 -78 85 -85 10 -8 29 -24 43 -37 13 -12
40 -33 60 -46 34 -24 34 -25 28 -79 -4 -30 -13 -68 -20 -85 -7 -17 -20 -71
-29 -120 -9 -49 -21 -98 -25 -110 -5 -12 -11 -39 -14 -59 -3 -21 -11 -46 -16
-56 -6 -10 -10 -30 -10 -44 0 -14 -4 -28 -10 -31 -5 -3 -10 -14 -10 -24 0 -29
-71 -239 -95 -282 -8 -14 -12 -29 -8 -32 3 -4 -2 -18 -11 -31 -9 -14 -19 -42
-22 -63 -3 -21 -9 -42 -14 -48 -4 -5 -21 -42 -38 -82 -29 -70 -33 -115 -19
-208 4 -27 28 -98 37 -110 5 -5 13 -30 20 -54 6 -25 25 -72 40 -105 33 -69 67
-95 133 -102 38 -4 51 0 113 41 38 25 84 62 102 82 17 20 34 34 37 31 3 -3 -6
-39 -21 -79 -15 -41 -32 -109 -37 -151 -19 -138 18 -195 127 -200 31 -1 55 -5
53 -8 -50 -93 -85 -176 -89 -208 -3 -22 0 -98 7 -168 14 -130 11 -167 -25
-288 -31 -105 -108 -150 -275 -160 -123 -7 -226 -22 -268 -38 -58 -22 -43 -80
49 -183 30 -33 54 -65 54 -71 0 -17 80 -94 99 -95 9 -1 22 -1 29 0 6 1 12 -3
12 -9 0 -20 89 -100 112 -100 40 -1 69 6 76 17 4 6 21 13 37 14 17 2 41 9 54
16 17 8 30 9 43 2 10 -5 24 -6 31 -2 6 4 20 6 30 5 9 -2 17 2 17 8 0 7 8 9 21
5 37 -12 99 -15 99 -5 0 6 6 10 13 10 8 0 22 9 32 20 10 11 21 17 26 15 4 -3
14 4 22 15 7 11 16 17 20 14 3 -3 10 4 16 15 6 11 23 32 36 47 14 15 25 32 25
38 0 6 9 22 20 36 11 14 20 34 21 45 1 14 4 10 9 -10 l8 -30 1 37 c0 20 6 40
11 43 6 3 10 14 9 23 0 14 -2 14 -6 2 -8 -20 -33 -44 -33 -31 0 5 4 12 9 15 5
4 12 24 16 46 4 22 11 38 16 34 5 -3 5 -14 -2 -27 -9 -19 -7 -18 10 3 11 14
20 30 20 35 0 6 -3 4 -6 -2 -3 -10 -8 -9 -20 2 -10 11 -12 19 -5 28 5 7 8 29
7 49 -2 21 1 40 6 44 5 3 7 10 3 16 -3 5 -8 42 -11 81 -2 40 -6 77 -8 84 -5
14 23 73 33 73 8 0 38 56 67 124 13 30 16 53 10 99 -3 34 -10 68 -15 77 -7 13
0 15 48 13 42 -1 62 4 83 19 29 22 53 70 50 101 -1 9 2 17 7 17 5 0 15 27 22
60 7 33 16 60 21 60 5 0 6 7 2 16 -3 9 -2 19 3 23 14 9 34 49 34 65 0 8 3 16
8 18 4 2 23 23 42 48 66 87 63 86 139 66 36 -10 68 -20 71 -23 3 -2 4 -35 3
-71 -1 -37 -2 -89 -2 -117 -1 -27 -16 -111 -35 -185 -25 -100 -31 -140 -24
-156 13 -28 111 -92 154 -100 19 -3 36 -10 39 -14 3 -4 -9 -26 -25 -49 -17
-22 -30 -47 -30 -54 0 -7 -9 -22 -19 -34 -29 -31 -48 -73 -56 -128 -5 -27 -8
-52 -7 -55 0 -3 4 -42 8 -85 15 -153 9 -210 -38 -338 -83 -230 -79 -216 -66
-245 13 -27 120 -100 148 -101 8 -1 39 -19 68 -41 29 -22 56 -40 60 -40 5 0
19 -12 33 -26 32 -35 97 -76 109 -69 6 4 10 0 10 -8 0 -19 49 -61 102 -88 24
-12 44 -21 45 -21 2 1 10 -1 19 -5 9 -3 19 -1 23 4 3 6 20 14 38 17 17 4 37
14 43 22 7 7 16 11 21 8 5 -3 14 7 21 21 7 16 23 28 39 32 21 4 33 17 48 49
12 24 26 44 32 44 5 0 7 5 3 11 -4 7 -9 7 -13 1 -3 -5 -19 8 -36 28 -16 21
-50 48 -75 61 -25 13 -46 27 -48 32 -2 4 -11 7 -19 7 -9 0 -40 12 -70 27 -53
25 -54 27 -48 59 3 18 12 46 20 61 8 15 15 38 15 50 0 12 5 25 10 28 6 3 10
16 10 28 0 13 8 33 17 46 10 15 11 21 3 16 -10 -6 -12 -3 -8 13 4 12 2 20 -3
16 -5 -3 -9 2 -9 10 0 24 0 23 -15 60 -8 20 -15 51 -15 70 0 19 -4 37 -9 40
-13 8 -5 55 13 75 9 10 16 25 16 34 0 9 9 26 21 38 11 11 27 36 35 55 8 19 19
34 24 34 13 0 30 45 35 90 1 19 3 40 4 46 1 7 19 8 57 3 62 -8 93 -1 129 33
25 24 55 97 55 135 0 12 5 25 10 28 6 3 10 20 10 37 0 32 40 199 50 208 9 8
40 77 40 89 0 24 62 125 78 127 9 2 37 6 62 10 25 5 50 8 56 9 15 1 94 56 92
64 -1 3 5 20 14 36 15 28 33 122 44 225 2 25 7 61 10 80 3 19 7 46 9 60 2 14
11 68 20 120 9 52 19 111 21 130 2 19 13 67 24 105 13 47 18 57 15 30 -16
-135 -24 -218 -40 -425 -10 -143 -18 -207 -30 -253 -7 -28 -11 -56 -8 -63 2
-6 0 -15 -6 -19 -6 -3 -11 -14 -11 -23 0 -25 -119 -129 -170 -149 -25 -9 -66
-31 -93 -50 -26 -18 -51 -33 -57 -33 -19 0 -31 -76 -19 -127 14 -57 41 -123
52 -123 4 0 7 -8 7 -18 0 -9 18 -37 40 -61 39 -42 41 -43 89 -38 27 3 59 10
70 16 12 7 21 10 21 7 0 -7 123 45 140 59 8 7 31 20 50 28 97 43 115 85 134
317 14 158 50 427 67 492 6 24 14 66 19 94 4 28 12 60 18 70 5 11 19 57 31
104 13 47 34 108 47 136 14 28 27 62 28 75 2 13 7 32 11 42 4 10 8 31 9 47 1
16 7 35 14 42 6 6 12 18 12 25 0 15 10 16 43 4 20 -8 27 -6 31 5 4 10 13 13
25 9 11 -3 22 -2 25 3 3 4 31 9 63 10 32 1 69 4 83 8 14 3 39 8 55 11 31 5 63
16 105 39 23 12 25 19 25 78 0 37 2 66 5 66 3 0 6 64 7 143 2 78 8 181 14 228
10 82 6 354 -7 459 -3 25 -7 59 -9 75 -2 17 -6 55 -10 86 -4 31 -17 92 -29
135 l-23 79 -79 61 c-43 34 -82 60 -85 58 -3 -2 -27 8 -54 21 -27 14 -56 25
-65 25 -10 0 -23 7 -30 15 -7 9 -20 13 -28 10 -9 -3 -18 -1 -22 5 -3 5 -19 11
-36 14 -31 4 -50 10 -101 32 -17 8 -39 14 -48 14 -9 0 -37 9 -63 19 -26 10
-85 34 -132 52 -47 18 -87 35 -90 38 -11 12 -50 31 -65 31 -9 0 -27 10 -40 23
-14 12 -41 31 -62 42 -75 40 -88 60 -87 131 0 35 6 69 11 76 6 7 16 39 22 70
7 31 20 67 30 80 10 13 16 28 14 35 -2 6 5 21 16 32 19 19 27 15 22 -12 -1 -5
8 -6 19 -2 14 4 20 2 18 -7 -2 -8 5 -12 20 -11 12 2 22 -2 22 -7 0 -6 9 -10
20 -10 19 0 25 -11 20 -35 -1 -5 8 -1 19 9 13 12 21 14 21 7 0 -7 4 -9 10 -6
5 3 20 8 32 11 32 7 39 10 68 21 14 6 28 9 32 6 4 -2 17 1 28 7 16 9 25 8 36
0 7 -7 21 -10 29 -6 9 3 14 2 11 -2 -2 -4 -1 -14 5 -22 6 -11 9 -11 10 -2 1 6
2 17 3 24 2 17 94 39 100 24 2 -6 5 1 5 15 1 29 34 65 50 55 6 -4 19 -1 29 5
15 10 24 9 43 -4 13 -10 28 -17 34 -17 5 0 4 4 -4 9 -10 6 -3 12 25 22 22 7
41 14 44 14 40 10 60 19 60 26 0 4 9 6 20 4 11 -2 18 0 15 4 -5 9 16 21 44 27
7 1 19 8 25 15 8 9 8 10 -3 4 -10 -5 -12 -4 -7 4 4 6 12 9 17 5 11 -7 56 35
52 48 -3 8 36 12 65 9 10 -2 12 7 7 31 -18 102 -18 107 16 143 18 19 36 32 40
30 4 -3 12 2 19 10 6 7 18 11 25 9 7 -3 31 12 52 33 48 48 89 82 80 66 -9 -15
66 -79 112 -94 20 -7 45 -18 57 -26 12 -7 28 -11 37 -8 8 4 18 2 22 -4 17 -29
100 -2 173 56 23 19 42 31 42 27 0 -3 15 5 34 20 19 14 39 26 44 26 5 0 17 9
27 20 10 11 24 20 30 20 7 0 15 7 19 15 3 8 9 15 14 15 13 0 62 42 132 113 32
31 63 57 69 57 6 0 11 6 11 13 0 8 11 24 25 37 14 13 25 28 25 33 0 5 13 26
29 46 16 20 46 72 66 116 21 44 43 91 50 105 18 37 38 128 32 150 -6 24 13 31
52 20 23 -6 33 -5 43 7 7 9 11 19 8 22 -6 6 71 60 88 61 6 0 12 7 12 15 0 8 5
15 10 15 6 0 8 10 4 24 -4 18 -1 25 16 29 12 3 20 10 17 14 -3 5 -1 28 5 52
10 40 12 42 42 37 17 -3 24 -3 16 2 -23 11 -60 45 -60 56 0 5 18 28 41 50 57
57 69 72 69 80 0 4 -5 4 -10 1 -6 -4 -1 10 10 30 11 19 20 42 20 51 0 8 5 12
10 9 6 -3 10 3 10 14 0 12 5 21 10 21 6 0 10 7 10 15 0 15 19 56 31 65 4 3 10
20 14 38 3 18 13 45 21 61 16 33 26 121 13 121 -5 0 -20 10 -34 22 -22 19 -23
24 -12 42 7 12 24 49 36 84 13 34 27 65 32 67 4 3 6 14 4 25 -3 13 0 18 7 14
7 -5 9 2 4 20 -4 17 -3 25 3 22 5 -4 12 -2 16 4 3 5 2 10 -4 10 -14 0 -5 77
18 165 11 38 19 77 18 85 0 9 3 28 7 44 4 18 3 25 -4 21 -5 -3 -10 -2 -10 4 0
5 5 13 10 16 6 3 10 13 10 21 0 9 -5 12 -11 8 -7 -4 -10 -1 -7 7 3 8 11 13 18
11 6 -1 10 3 7 10 -2 7 -10 12 -16 11 -6 -2 -11 2 -11 7 0 6 4 10 10 10 11 0
1 32 -14 42 -7 5 -7 8 2 8 10 0 10 5 2 20 -6 11 -8 20 -4 20 4 0 -1 9 -11 20
-10 11 -14 20 -10 20 5 0 4 5 -3 12 -7 7 -12 22 -12 33 0 12 -3 25 -7 29 -5 4
-8 11 -9 14 -2 20 -28 102 -44 137 -10 22 -21 58 -25 80 -4 22 -10 45 -15 50
-4 6 -10 29 -14 51 -3 23 -13 54 -21 70 -8 16 -15 34 -15 41 0 7 -9 17 -20 23
-17 9 -25 6 -50 -20 -16 -16 -32 -30 -35 -30 -2 0 -8 18 -11 40 -4 22 -11 43
-15 46 -5 3 -9 14 -9 26 0 11 -8 32 -18 46 -27 39 -71 139 -64 146 3 3 0 6 -7
6 -7 0 -10 4 -6 9 3 5 -6 34 -19 64 -14 29 -27 65 -30 79 -2 15 -14 48 -25 74
-12 25 -21 52 -21 59 0 14 -28 24 -47 18 -7 -3 -13 -9 -13 -14 0 -5 -9 -18
-19 -28 -19 -19 -19 -18 -40 45 -12 36 -21 71 -21 80 0 8 -10 19 -22 24 -19 7
-27 3 -45 -18 -22 -26 -53 -38 -53 -21 0 5 -7 9 -15 9 -8 0 -20 9 -27 20 -7
11 -18 20 -25 20 -6 0 -13 4 -15 8 -5 12 -113 92 -125 92 -6 0 -17 7 -24 17
-17 19 -108 87 -129 95 -8 3 -46 29 -83 57 -37 28 -72 51 -77 51 -6 0 -47 18
-92 40 -46 22 -87 40 -91 40 -5 0 -21 8 -35 19 -15 10 -38 22 -52 25 -14 4
-49 19 -77 32 -29 14 -57 23 -61 20 -11 -6 -75 10 -119 30 -17 8 -45 14 -61
14 -17 0 -34 5 -37 10 -4 6 -14 10 -23 9 -10 -2 -35 1 -57 5 -23 4 -76 9 -118
11 -43 2 -81 6 -86 9 -4 3 -32 8 -62 11 -66 8 -80 11 -99 18 -30 12 -138 37
-161 37 -13 1 -42 9 -64 20 -22 11 -51 19 -63 20 -13 0 -37 14 -52 30 -16 17
-42 33 -59 36 -20 4 -47 24 -74 53 -49 55 -75 69 -83 43z m2460 -1418 c3 -8 2
-12 -4 -9 -6 3 -10 10 -10 16 0 14 7 11 14 -7z m-1789 -358 c71 -20 80 -24
167 -65 50 -24 81 -49 123 -97 31 -35 62 -64 68 -64 7 0 24 -11 38 -24 14 -13
39 -31 55 -40 16 -9 43 -25 59 -34 17 -10 53 -24 80 -32 28 -7 55 -16 60 -20
21 -15 105 -31 213 -40 104 -10 115 -9 154 10 23 11 43 18 45 17 5 -6 -29 -99
-49 -135 -18 -33 -17 -72 3 -72 5 0 9 -8 7 -17 -2 -10 2 -17 9 -16 6 2 38 5
70 7 32 2 76 7 96 11 l38 7 -3 -58 c-3 -58 -3 -58 -38 -66 -66 -15 -174 -11
-272 11 -138 30 -140 29 -132 -16 15 -90 86 -184 195 -259 24 -16 53 -39 66
-52 22 -22 22 -25 9 -55 -29 -63 -55 -153 -66 -224 l-12 -73 31 -39 c17 -21
31 -42 31 -47 0 -4 9 -17 20 -29 l20 -21 -53 -65 c-167 -203 -162 -237 20
-153 62 29 73 30 45 5 -12 -10 -22 -23 -22 -29 0 -6 -8 -16 -17 -22 -17 -9
-16 -11 5 -29 28 -25 28 -29 -7 -65 -50 -52 -98 -110 -110 -133 -10 -19 -8
-24 10 -33 11 -6 37 -10 57 -8 34 3 37 1 34 -22 -1 -14 -11 -37 -22 -52 -11
-15 -20 -32 -20 -39 0 -6 -9 -22 -20 -36 -11 -14 -20 -31 -20 -38 0 -7 -6 -18
-14 -24 -11 -9 -174 -244 -221 -319 -31 -49 -181 -202 -198 -202 -5 0 -23 -11
-40 -23 -18 -13 -48 -29 -67 -36 -19 -7 -53 -21 -75 -32 -49 -22 -103 -36
-175 -43 -30 -3 -82 -9 -115 -12 -33 -3 -82 -6 -110 -6 -27 0 -73 -4 -101 -9
-28 -5 -64 -12 -80 -14 -61 -10 -90 -15 -114 -21 -14 -3 -35 -7 -47 -9 -53 -8
-143 -46 -163 -70 -7 -8 -18 -15 -24 -15 -21 0 -76 -52 -76 -71 0 -10 -6 -22
-14 -26 -7 -4 -24 -30 -36 -58 -12 -27 -33 -72 -45 -100 -13 -27 -27 -62 -30
-78 -4 -15 -11 -30 -16 -32 -4 -3 -11 -26 -15 -50 -3 -25 -10 -48 -15 -51 -5
-3 -7 -10 -3 -15 3 -5 1 -16 -5 -23 -7 -8 -14 -36 -16 -64 -5 -50 -5 -50 47
-96 29 -26 83 -68 120 -94 37 -26 67 -52 68 -59 0 -7 -16 -20 -35 -29 -19 -9
-35 -22 -35 -29 0 -6 -14 -23 -32 -36 -17 -13 -44 -34 -59 -46 -15 -13 -30
-23 -34 -23 -4 0 -25 -15 -48 -34 -23 -19 -62 -42 -87 -51 -25 -10 -65 -26
-89 -37 -25 -11 -59 -21 -76 -22 -17 -2 -41 -8 -53 -15 -13 -7 -30 -10 -37 -7
-8 3 -17 1 -20 -4 -5 -8 -65 -4 -95 7 -8 4 -30 7 -48 9 -19 2 -62 18 -97 36
-82 43 -153 126 -254 298 -15 25 -41 87 -41 98 0 6 -5 23 -11 39 -15 38 -18
103 -5 103 157 6 200 11 226 23 16 9 39 13 50 10 14 -4 22 1 29 18 5 13 21 51
36 83 15 33 30 74 32 90 3 17 10 40 16 51 23 44 40 171 38 285 -2 57 -7 74
-42 133 -23 38 -71 99 -108 135 -80 80 -258 232 -271 232 -6 0 -10 7 -10 15 0
8 -6 15 -12 15 -7 0 -35 24 -63 53 -27 29 -71 68 -97 86 -27 17 -48 36 -48 41
0 6 -6 10 -13 10 -7 0 -20 8 -29 19 -9 10 -42 38 -74 62 -33 24 -79 65 -103
92 -24 26 -49 47 -56 47 -8 0 -23 15 -34 33 -12 17 -41 48 -66 67 -24 19 -44
38 -44 42 -1 4 -16 33 -35 64 -19 31 -37 73 -41 93 -9 60 38 344 70 416 7 17
16 44 18 60 3 17 14 54 25 83 21 57 37 72 147 132 33 18 67 39 75 46 14 12 19
7 40 -32 38 -68 54 -56 61 46 9 121 20 213 26 223 3 4 7 21 10 38 2 16 11 41
19 57 7 15 14 32 14 38 0 6 13 27 30 45 16 19 30 37 30 40 0 3 16 14 35 25 19
10 35 21 35 25 0 9 119 85 153 98 15 6 27 15 27 21 0 5 8 10 17 10 9 0 27 9
39 21 12 11 31 21 43 22 11 1 21 7 21 14 0 7 5 13 11 13 8 0 71 42 89 60 3 3
18 16 35 30 l29 25 -31 -40 c-50 -63 -130 -135 -152 -135 -12 0 -31 -32 -31
-54 0 -13 9 -15 48 -10 26 3 61 11 77 19 33 14 67 28 75 29 9 2 125 70 130 76
3 4 37 27 75 52 39 26 83 57 98 70 83 68 109 87 129 94 11 3 41 22 66 41 56
43 195 109 258 123 26 6 51 13 56 16 5 4 31 8 59 9 27 2 56 8 65 13 9 5 104 8
212 7 150 -2 211 -6 257 -19z m-2590 -940 c50 -26 123 -91 155 -138 18 -26 41
-50 52 -54 10 -3 17 -11 15 -17 -5 -16 -57 -25 -115 -20 -40 3 -51 0 -56 -14
-11 -29 17 -45 82 -47 62 -1 63 -1 42 -51 -5 -11 -16 -42 -26 -68 -19 -53 -19
-53 -60 15 -34 55 -154 163 -191 173 -50 12 -51 -13 -3 -56 110 -98 128 -117
158 -161 18 -26 32 -50 32 -53 0 -10 -43 -44 -56 -45 -6 0 -31 -21 -54 -46
-48 -53 -49 -73 -4 -150 52 -89 99 -74 50 17 -14 27 -26 55 -26 62 0 17 48 67
64 67 8 0 19 7 26 15 23 28 27 15 12 -37 -8 -29 -18 -75 -22 -103 -4 -27 -12
-68 -18 -90 -19 -78 -15 -143 13 -196 30 -57 38 -53 -107 -50 -37 1 -80 32
-76 55 1 6 -9 33 -20 59 -12 27 -25 60 -28 73 -3 13 -12 28 -20 35 -8 6 -14
19 -14 28 0 9 -16 43 -37 76 -50 83 -116 329 -98 371 4 11 9 41 10 68 2 27 8
59 13 70 6 12 23 47 37 79 33 69 76 115 133 144 46 22 78 20 137 -11z m4098
-936 c15 -7 42 -38 59 -69 28 -48 32 -65 32 -131 1 -65 -4 -84 -32 -143 -17
-37 -32 -72 -32 -79 0 -11 -20 -44 -72 -120 -10 -15 -18 -29 -18 -32 0 -5 -78
-93 -115 -131 -42 -41 -111 -97 -132 -108 -13 -5 -23 -14 -23 -18 0 -8 -27
-25 -112 -70 -16 -8 -33 -20 -36 -25 -4 -6 -34 -27 -68 -47 l-60 -36 -55 14
c-72 18 -116 35 -161 63 -44 28 -46 36 -14 57 24 16 136 157 136 172 0 4 12
19 25 32 14 13 25 27 25 32 0 6 18 34 40 63 22 29 40 58 40 64 0 7 4 12 8 12
5 0 15 11 22 25 9 18 17 22 25 15 15 -12 40 -123 32 -142 -3 -7 -36 -28 -74
-46 -37 -19 -75 -37 -83 -41 -8 -5 -15 -17 -15 -27 0 -31 40 -28 121 10 41 20
77 36 81 36 16 0 32 40 33 81 0 31 -9 62 -26 95 l-26 48 43 36 c53 46 184 114
199 105 4 -3 11 3 14 12 8 20 -10 33 -46 33 -38 0 -73 -17 -141 -67 -65 -49
-88 -55 -58 -17 12 15 21 35 21 45 0 11 5 19 10 19 6 0 10 6 10 14 0 7 7 27
15 42 8 16 15 36 15 45 0 9 10 19 21 22 14 4 20 11 16 21 -7 17 85 106 109
106 8 0 25 7 38 15 48 32 159 40 209 15z m-1293 -1226 c0 -2 -7 -4 -15 -4 -8
0 -15 4 -15 10 0 5 7 7 15 4 8 -4 15 -8 15 -10z m-390 -84 c0 -5 -5 -10 -11
-10 -5 0 -7 5 -4 10 3 6 8 10 11 10 2 0 4 -4 4 -10z m-240 -105 c46 -29 48
-35 19 -53 -18 -11 -25 -10 -47 5 -15 10 -36 20 -47 23 -24 7 -27 36 -3 32 9
-1 19 2 23 8 9 14 10 13 55 -15z m-1875 -308 c17 -2 44 -7 60 -10 30 -6 121
-15 225 -22 30 -3 83 -7 118 -11 l62 -7 0 -43 c0 -70 49 -224 71 -224 4 0 16
-19 28 -42 59 -118 144 -217 221 -259 25 -13 47 -27 50 -30 9 -10 65 -28 124
-39 60 -12 171 -8 236 9 19 6 46 13 60 16 52 14 160 66 160 77 0 5 9 8 20 8
11 0 20 4 20 9 0 5 14 14 30 21 17 7 47 28 67 46 20 19 40 34 43 34 4 0 41 33
82 73 l76 72 61 -25 c33 -14 63 -29 67 -33 4 -4 18 -7 31 -7 13 0 42 -8 66
-19 53 -23 139 -56 152 -57 6 0 17 -4 25 -7 8 -3 51 -18 95 -32 44 -15 99 -36
122 -46 24 -10 48 -19 54 -19 6 0 37 -20 69 -46 52 -41 60 -52 79 -113 24 -75
61 -350 61 -446 0 -33 1 -85 2 -115 1 -51 -5 -142 -17 -250 -4 -38 -14 -237
-19 -369 -1 -31 -5 -35 -45 -47 -24 -7 -49 -10 -56 -7 -8 2 -23 -1 -35 -7 -13
-7 -39 -14 -59 -15 -20 -2 -67 -7 -106 -11 -115 -13 -168 -11 -305 11 -25 4
-50 12 -57 17 -7 5 -16 8 -20 5 -4 -3 -22 7 -40 22 l-32 26 44 177 c24 97 51
193 59 213 9 20 14 41 11 45 -4 7 22 68 63 147 15 30 15 34 0 49 -33 33 -78
-47 -127 -222 -10 -40 -24 -81 -31 -93 -6 -12 -9 -25 -6 -29 5 -9 -40 -199
-53 -222 -5 -9 -12 -36 -16 -60 -3 -25 -11 -58 -15 -75 -5 -16 -23 -88 -40
-160 -17 -71 -35 -145 -41 -163 -6 -19 -9 -36 -6 -38 3 -3 -1 -29 -9 -57 -14
-53 -35 -171 -39 -217 -1 -14 -5 -52 -10 -85 -5 -33 -8 -65 -7 -71 1 -7 -3
-25 -9 -40 -7 -16 -14 -45 -15 -64 -4 -42 -31 -119 -51 -141 -29 -35 -199 -45
-383 -24 -65 8 -172 17 -195 16 -10 0 -24 4 -31 10 -7 5 -16 9 -20 8 -14 -4
-100 10 -199 32 -85 18 -278 48 -337 52 -14 1 -30 5 -34 10 -4 4 -24 7 -43 7
-21 0 -61 13 -94 30 -32 17 -66 30 -75 30 -9 1 -35 9 -57 20 -22 11 -48 19
-57 20 -9 0 -29 6 -45 14 -52 27 -123 56 -136 56 -7 0 -21 6 -32 14 -11 7 -31
17 -45 20 -38 11 -132 47 -160 61 -84 43 -160 85 -194 108 -21 15 -45 27 -52
27 -8 0 -14 5 -14 10 0 6 -6 10 -12 10 -17 1 -82 62 -93 86 -4 11 -7 30 -6 44
3 30 30 109 45 130 6 8 24 42 40 75 16 33 33 68 37 77 5 10 9 22 9 28 0 6 10
24 21 39 12 16 18 34 15 40 -4 6 -4 11 1 11 4 0 14 15 21 33 8 17 18 41 22 52
32 75 70 171 70 178 0 5 7 23 15 40 17 38 42 109 56 157 6 19 13 42 16 50 4 8
8 28 10 43 1 16 10 43 18 61 9 18 15 37 14 42 -4 13 12 77 21 89 5 6 15 42 23
82 8 39 17 75 20 80 4 5 11 41 17 78 6 38 18 83 25 100 13 27 24 66 42 158 6
28 -7 36 -25 15 -5 -7 -18 -40 -27 -73 -10 -33 -30 -98 -45 -145 -16 -47 -33
-107 -39 -135 -5 -27 -19 -79 -30 -114 -12 -35 -21 -75 -21 -90 0 -14 -7 -39
-15 -55 -8 -16 -18 -45 -21 -66 l-6 -37 -47 9 c-92 18 -184 46 -223 68 -10 6
-24 10 -31 10 -7 0 -22 9 -34 19 -11 10 -35 27 -53 37 -56 32 -65 38 -110 74
-53 41 -190 175 -190 186 0 4 24 33 53 64 28 31 68 75 87 99 19 23 50 58 68
78 17 20 32 41 32 47 1 6 11 23 23 37 68 81 187 229 187 233 0 5 10 17 65 79
14 15 25 32 25 37 0 4 12 19 28 32 15 12 43 43 61 68 97 127 226 228 311 244
25 4 126 1 185 -7z m-797 -1354 c26 -14 54 -32 62 -39 8 -7 35 -17 60 -24 92
-23 100 -29 100 -72 0 -22 -5 -48 -11 -60 -6 -11 -13 -36 -15 -56 -3 -19 -13
-51 -23 -71 -26 -52 -51 -110 -51 -121 0 -5 -13 -31 -29 -57 -16 -27 -32 -59
-36 -73 -4 -14 -18 -39 -31 -57 -13 -17 -24 -34 -24 -37 0 -3 -12 -22 -26 -43
-36 -53 -85 -159 -91 -200 -3 -18 -10 -36 -14 -39 -25 -15 -1 -184 36 -254 86
-163 95 -224 42 -283 -18 -20 -35 -37 -39 -37 -4 0 -29 -14 -57 -31 -85 -53
-132 -21 -177 120 -15 47 -33 95 -39 106 -21 33 -36 119 -31 166 3 25 17 67
31 94 14 28 25 58 25 67 0 9 5 20 10 23 6 3 10 19 10 34 0 15 4 31 8 36 5 6
21 48 37 95 15 46 38 105 51 130 28 58 48 127 45 162 -1 15 4 40 12 55 17 31
35 100 67 243 11 52 25 109 30 125 5 17 10 52 11 78 1 26 4 47 6 47 3 0 25
-12 51 -27z m336 -130 c-4 -10 -13 -33 -21 -51 -20 -46 -47 -135 -45 -148 1
-6 -5 -17 -13 -24 -8 -7 -15 -19 -15 -27 0 -8 -6 -29 -14 -46 -8 -18 -29 -66
-46 -107 -17 -41 -37 -87 -45 -102 -8 -14 -15 -36 -15 -47 0 -12 -3 -21 -8
-21 -8 0 -9 -2 -58 -102 -58 -116 -74 -158 -74 -187 0 -64 14 -94 65 -145 46
-47 50 -55 43 -81 -4 -17 -7 -46 -6 -65 1 -39 -22 -150 -31 -150 -4 0 -8 21
-9 47 -1 26 -12 67 -25 92 -13 25 -30 64 -37 86 -7 22 -21 49 -30 60 -10 11
-21 41 -25 66 -9 62 27 207 68 274 16 28 44 75 60 105 17 30 38 67 49 82 10
14 18 29 18 33 0 8 48 115 61 135 11 18 41 81 44 95 1 6 9 27 19 47 9 21 16
46 16 57 0 11 4 22 9 26 6 3 10 13 10 23 0 9 2 31 5 47 2 17 5 33 5 38 1 4 12
7 26 7 19 0 23 -4 19 -17z m2287 -583 c-11 -36 -20 -55 -20 -43 -1 12 3 32 8
45 5 13 13 37 17 53 3 17 8 26 10 20 2 -5 -5 -39 -15 -75z m123 31 c3 -5 15
-7 26 -4 11 3 32 0 48 -6 15 -6 48 -12 74 -13 55 -3 55 4 1 -153 -19 -55 -42
-129 -52 -165 -10 -36 -23 -75 -30 -88 -6 -12 -9 -27 -6 -32 3 -5 1 -12 -5
-15 -6 -4 -8 -15 -5 -26 4 -10 2 -19 -4 -19 -5 0 -13 -25 -16 -55 -4 -30 -11
-58 -16 -61 -5 -3 -9 -20 -9 -37 0 -18 -4 -48 -10 -67 -8 -32 -14 -67 -25
-160 -19 -152 -20 -158 -28 -180 -8 -20 -15 -87 -21 -183 -5 -101 -27 -135
-116 -179 -36 -18 -67 -35 -70 -39 -4 -5 -34 -17 -60 -24 -3 -1 -12 -4 -20 -7
-68 -27 -83 -28 -103 -11 -11 10 -26 34 -35 53 -8 19 -22 46 -32 60 -11 15
-19 48 -21 78 l-3 52 52 34 c49 33 75 45 97 46 39 3 188 141 203 190 6 19 14
55 17 80 3 25 10 59 15 75 10 38 23 234 22 340 -1 43 3 85 9 91 6 7 9 27 7 46
-4 45 10 159 29 238 9 36 17 72 18 80 4 36 25 70 44 70 11 0 22 -4 25 -9z
m-147 -123 c-3 -8 -6 -5 -6 6 -1 11 2 17 5 13 3 -3 4 -12 1 -19z m-10 -40 c-3
-8 -6 -5 -6 6 -1 11 2 17 5 13 3 -3 4 -12 1 -19z m-2375 -403 c16 -14 35 -25
43 -25 7 0 18 -7 25 -15 7 -8 20 -15 29 -15 9 0 39 -15 66 -33 28 -19 71 -39
97 -47 26 -7 78 -28 115 -46 37 -19 71 -34 76 -34 10 0 49 -17 136 -56 29 -14
55 -23 58 -20 3 2 13 -4 23 -14 10 -10 26 -22 35 -28 16 -9 16 -11 -5 -40 -13
-17 -30 -34 -38 -37 -14 -5 -88 12 -107 26 -5 3 -26 10 -45 14 -19 4 -41 11
-50 16 -34 18 -87 39 -111 43 -15 2 -40 11 -57 20 -38 20 -62 20 -62 2 0 -8
14 -17 31 -21 17 -4 52 -16 78 -27 66 -28 77 -32 161 -64 82 -32 127 -64 116
-82 -5 -9 -13 -9 -26 -2 -10 5 -25 10 -32 10 -7 0 -2 -6 12 -13 14 -7 26 -23
28 -35 4 -26 0 -27 -41 -8 -18 7 -61 24 -97 36 -36 12 -79 29 -97 36 -17 8
-35 14 -40 13 -4 -1 -15 0 -23 4 -99 37 -112 40 -121 26 -7 -11 5 -18 56 -34
35 -11 67 -23 71 -27 4 -5 17 -8 29 -8 11 0 43 -11 71 -24 27 -13 76 -32 109
-42 69 -22 83 -49 25 -49 -19 0 -39 2 -45 6 -5 4 -26 10 -45 14 -19 4 -39 11
-45 15 -10 8 -66 27 -101 35 -31 7 -108 34 -126 45 -10 5 -24 7 -33 4 -23 -9
-14 -38 13 -42 12 -2 22 -8 22 -13 0 -6 9 -7 20 -4 12 4 20 2 20 -5 0 -6 6
-10 13 -9 6 1 19 -1 27 -4 8 -3 35 -11 60 -17 25 -7 50 -15 55 -20 6 -4 49
-18 98 -30 48 -13 87 -26 87 -30 0 -23 -29 -27 -95 -14 -83 16 -110 17 -75 2
51 -21 66 -27 103 -38 27 -9 37 -17 35 -28 -4 -17 -25 -18 -58 -5 -8 4 -17 7
-20 8 -3 1 -12 4 -20 8 -8 3 -26 8 -40 10 -58 12 -147 40 -182 58 -20 10 -46
19 -56 19 -10 0 -22 3 -26 7 -3 4 -14 8 -24 9 -9 1 -39 5 -67 9 -27 4 -78 7
-111 7 -34 -1 -70 5 -79 12 -28 20 -30 92 -5 166 13 36 23 73 22 83 0 9 3 17
9 17 5 0 9 9 9 19 0 11 5 23 11 27 6 3 9 14 6 24 -3 11 2 28 9 39 8 11 19 60
25 108 18 150 19 152 71 108z m1058 -404 c0 -12 80 -26 205 -36 28 -2 79 -8
115 -14 114 -20 452 -61 496 -61 38 0 42 -2 37 -21 -6 -23 15 -23 -263 1 -113
9 -177 16 -250 25 -14 2 -59 6 -100 10 -68 5 -73 4 -50 -8 23 -13 118 -35 180
-43 14 -1 45 -8 70 -14 25 -6 64 -13 86 -14 23 -2 45 -6 50 -8 12 -7 66 -19
106 -23 47 -4 118 -24 118 -33 0 -18 -25 -31 -49 -26 -14 2 -88 15 -164 29
-76 13 -141 24 -145 23 -4 -1 -31 4 -60 10 -75 17 -122 16 -122 -3 0 -9 10
-15 23 -16 26 -1 35 -3 107 -24 30 -9 70 -18 88 -20 18 -2 38 -8 45 -13 7 -5
19 -10 27 -10 8 -1 38 -6 65 -12 28 -6 59 -12 70 -14 11 -1 28 -6 38 -10 9 -5
24 -6 32 -2 19 7 19 -1 1 -20 -17 -16 -57 -18 -105 -4 -35 10 -59 4 -44 -11 4
-4 33 -14 63 -22 44 -11 56 -19 58 -36 3 -21 1 -22 -45 -15 -26 4 -63 13 -81
21 -18 8 -50 16 -71 18 -38 3 -162 31 -191 42 -8 3 -22 7 -30 9 -34 6 -46 10
-57 17 -9 6 -13 2 -13 -10 0 -15 18 -23 93 -42 50 -13 103 -28 117 -34 14 -6
32 -12 40 -13 59 -11 118 -26 132 -34 10 -6 22 -10 27 -10 5 0 21 -4 35 -9 17
-7 23 -15 19 -29 -4 -19 -9 -18 -126 11 -67 17 -124 34 -127 37 -3 4 -25 11
-50 14 -25 4 -71 16 -103 27 -68 23 -83 24 -90 5 -4 -11 14 -20 72 -35 42 -12
85 -21 94 -21 9 0 18 -4 21 -9 3 -4 24 -11 48 -15 23 -4 56 -13 72 -21 17 -7
49 -19 71 -25 70 -21 95 -34 95 -52 0 -20 -38 -17 -105 9 -58 22 -134 43 -154
43 -11 0 -23 5 -26 10 -3 6 -19 10 -35 10 -16 0 -32 5 -35 11 -4 6 -13 8 -20
5 -7 -2 -16 -1 -21 4 -8 8 -37 15 -89 22 -12 2 -21 -4 -23 -14 -3 -13 3 -18
22 -18 14 0 28 -4 31 -10 3 -5 17 -10 29 -10 13 0 29 -7 36 -15 7 -8 24 -15
38 -15 28 0 141 -29 157 -40 6 -4 42 -15 80 -25 82 -21 100 -32 85 -50 -8 -10
-35 -7 -126 16 -63 17 -123 34 -132 39 -9 5 -64 21 -122 35 -58 15 -115 31
-126 37 -16 8 -28 6 -47 -7 -24 -15 -29 -15 -93 7 -38 13 -79 32 -91 42 -24
20 -32 70 -13 81 6 3 10 21 10 40 0 19 4 36 9 39 16 10 47 233 43 314 -2 36 1
42 18 42 11 0 20 -4 20 -9z m-969 -277 c30 -9 72 -25 95 -35 23 -10 44 -19 48
-19 20 0 86 -55 86 -72 0 -10 7 -33 17 -51 10 -21 17 -57 17 -104 0 -60 -3
-77 -22 -100 -12 -15 -29 -41 -37 -58 -24 -51 -80 -98 -117 -100 -18 -1 -37 1
-43 4 -5 3 -40 6 -78 8 -101 4 -113 16 -122 114 -3 45 -13 99 -21 122 -12 33
-12 47 -3 69 6 16 9 31 6 34 -7 8 74 164 85 164 4 0 8 9 8 20 0 24 12 25 81 4z
m1189 -401 c41 -14 84 -27 95 -29 11 -2 41 -11 66 -19 l46 -17 -4 -46 c-6 -61
-55 -160 -113 -229 -5 -7 -10 -17 -10 -23 0 -14 -21 -49 -42 -71 -13 -14 -29
-17 -75 -14 -78 4 -152 22 -189 44 -27 16 -31 25 -31 64 -1 25 -6 54 -12 65
-11 20 -3 90 15 137 7 17 81 130 107 163 12 15 40 10 147 -25z"/>
<path d="M6960 10018 c-30 -4 -77 -10 -103 -13 -27 -3 -59 -12 -72 -21 -13 -9
-28 -13 -33 -10 -15 9 -37 -23 -25 -35 12 -12 47 -10 223 15 163 22 235 21
480 -10 19 -2 63 -5 96 -7 43 -1 68 -8 82 -20 36 -33 62 -3 62 71 0 43 -18 48
-76 22 -35 -16 -57 -20 -87 -16 -22 4 -78 9 -126 12 -47 3 -97 8 -111 11 -35
9 -243 10 -310 1z"/>
<path d="M6922 9813 c-26 -15 -59 -32 -73 -40 -43 -22 -44 -53 -4 -132 20 -39
41 -74 48 -78 11 -7 23 -23 67 -88 8 -13 25 -36 37 -52 l22 -30 -49 -29 c-27
-16 -50 -32 -50 -36 0 -5 -5 -8 -11 -8 -6 0 -17 -6 -24 -12 -17 -16 -36 -30
-57 -43 -98 -63 -128 -87 -128 -103 0 -41 91 -152 125 -152 6 0 21 8 33 18 11
9 30 24 42 32 46 31 117 86 139 107 12 12 36 34 52 49 25 24 32 26 40 14 20
-31 67 -126 78 -162 7 -20 21 -49 33 -63 17 -21 26 -25 52 -20 28 5 29 4 12
-7 -58 -39 -71 -78 -18 -56 43 18 68 46 55 59 -9 9 -3 17 25 32 59 31 81 55
73 80 -19 56 -34 87 -43 87 -5 0 -7 4 -4 9 3 5 -1 15 -10 22 -8 7 -24 29 -34
50 -11 20 -23 39 -28 41 -4 1 -18 17 -30 35 l-22 31 65 51 c35 28 68 51 72 51
9 0 73 49 141 107 57 49 55 71 -10 134 -49 47 -55 51 -91 46 -34 -5 -54 -21
-151 -120 l-112 -115 -29 65 c-17 35 -37 72 -46 82 -9 10 -20 27 -23 39 -4 12
-12 22 -17 22 -5 0 -9 6 -9 13 0 22 -48 84 -70 90 -12 3 -40 -5 -68 -20z"/>
<path d="M8436 9809 c-11 -56 -9 -62 22 -56 18 4 36 -1 52 -13 14 -11 33 -20
42 -20 9 0 19 -4 22 -9 4 -5 32 -17 64 -26 56 -17 173 -72 242 -113 19 -12 63
-35 97 -52 34 -17 63 -34 65 -38 2 -4 37 -32 78 -61 41 -30 91 -71 111 -93 55
-58 92 -48 50 15 -21 32 -132 137 -144 137 -11 0 -80 52 -90 67 -4 7 -16 13
-25 13 -9 0 -28 7 -42 14 -14 8 -45 25 -70 39 -25 13 -76 40 -113 60 -38 21
-78 37 -89 37 -11 0 -32 6 -46 14 -15 8 -55 23 -89 33 -51 15 -66 24 -80 51
-23 41 -49 42 -57 1z"/>
<path d="M8395 9549 c-122 -23 -129 -25 -163 -43 -30 -15 -50 -51 -37 -64 3
-4 39 10 79 31 53 27 85 37 119 37 25 0 48 4 51 9 8 12 128 4 184 -13 45 -13
120 -45 206 -87 22 -10 44 -19 49 -19 5 0 32 -16 58 -35 27 -19 54 -35 59 -35
16 0 11 36 -7 59 -21 24 -182 105 -245 121 -23 7 -70 20 -103 31 -85 26 -147
28 -250 8z"/>
<path d="M8309 9366 c-2 -2 -33 -6 -69 -9 -36 -3 -66 -6 -66 -7 -1 0 -4 -10
-7 -22 -3 -13 -12 -42 -21 -65 -18 -49 -7 -97 21 -91 19 4 46 73 41 108 l-4
26 101 2 100 2 0 -132 c0 -169 4 -185 52 -194 22 -4 42 -2 52 5 9 6 26 15 39
21 12 5 22 16 22 23 0 7 11 24 25 37 14 13 23 25 21 27 -2 3 14 23 36 46 22
23 46 56 53 73 l14 32 87 -25 c48 -13 101 -32 120 -41 209 -107 306 -174 338
-234 17 -32 17 -36 2 -65 -8 -17 -29 -42 -46 -55 -17 -12 -44 -35 -61 -50 -16
-16 -36 -28 -44 -28 -7 0 -17 -5 -20 -10 -31 -51 -230 -43 -385 15 -25 9 -65
22 -90 29 -25 8 -71 25 -103 39 -32 15 -64 24 -71 21 -8 -3 -17 -1 -21 5 -3 6
-20 11 -36 11 -27 0 -30 -3 -27 -27 2 -18 10 -29 23 -32 11 -2 23 -8 27 -15 4
-6 13 -11 20 -12 38 -2 95 -19 139 -40 27 -13 57 -26 67 -28 49 -9 72 -20 72
-32 0 -8 7 -31 15 -51 13 -30 17 -34 30 -23 10 8 14 24 11 41 -3 20 1 28 14
32 11 3 22 2 25 -2 4 -3 11 -7 16 -7 5 -1 11 -3 14 -4 3 -1 10 -3 17 -4 6 0
15 -15 20 -33 5 -18 18 -39 31 -48 20 -14 22 -14 28 2 3 10 3 28 -2 40 -6 17
-4 22 14 27 13 3 32 3 44 0 12 -3 39 0 60 7 21 7 41 12 45 11 3 -1 12 5 18 13
7 8 18 15 25 15 6 0 22 9 35 20 13 11 42 35 66 53 42 32 91 108 79 126 -3 5
-1 12 5 16 19 12 10 50 -23 92 -33 42 -171 153 -192 153 -6 0 -32 14 -58 30
-26 17 -54 30 -62 30 -8 0 -15 3 -15 8 0 6 -29 19 -120 51 -112 40 -285 79
-380 86 -36 3 -86 7 -111 9 -26 3 -48 3 -50 2z"/>
<path d="M8066 9244 c-3 -9 -6 -25 -6 -37 -1 -20 -2 -20 -11 -4 -11 18 -38 23
-40 7 -2 -13 -3 -17 -16 -61 -19 -65 4 -169 37 -169 9 0 15 32 10 55 -7 33 -7
100 0 123 5 15 9 21 9 13 1 -20 49 -177 68 -226 9 -22 27 -51 41 -65 l24 -25
-6 50 c-3 28 -12 64 -20 80 -18 39 -46 167 -55 256 -2 15 -30 17 -35 3z"/>
<path d="M7153 8973 c-7 -3 -13 -12 -13 -21 0 -15 2 -15 17 1 18 18 16 27 -4
20z"/>
<path d="M7493 8955 c-3 -9 -3 -18 0 -21 10 -10 47 7 47 22 0 19 -39 18 -47
-1z"/>
<path d="M7160 8849 c-25 -5 -55 -7 -67 -4 -12 3 -24 1 -27 -3 -3 -5 -18 -9
-34 -10 -28 -1 -58 -10 -192 -64 -79 -32 -160 -75 -172 -92 -18 -27 135 -176
183 -176 5 0 31 -15 57 -34 27 -18 64 -42 82 -51 19 -10 40 -24 48 -31 7 -8
21 -14 31 -14 9 0 38 -13 64 -30 26 -16 54 -30 62 -30 7 0 16 -4 19 -8 3 -5
36 -22 73 -37 37 -16 83 -39 101 -51 18 -13 50 -28 70 -34 20 -6 53 -17 72
-25 58 -22 75 -28 85 -30 6 0 23 -7 39 -13 39 -17 115 -34 125 -28 4 3 28 -1
53 -9 50 -15 207 -23 225 -12 6 4 14 3 18 -3 3 -5 18 -7 33 -5 15 2 65 7 112
11 136 10 151 12 231 22 42 5 85 15 96 20 23 13 33 7 33 -20 0 -10 7 -21 15
-25 19 -7 55 24 55 47 0 9 5 21 11 27 6 6 13 37 15 69 4 49 2 63 -16 84 -19
24 -21 24 -34 7 -11 -15 -16 -16 -23 -5 -9 14 -88 78 -97 78 -3 0 -14 8 -25
18 -58 54 -78 70 -99 76 -12 4 -28 13 -35 19 -7 7 -35 23 -62 37 -28 13 -64
36 -82 51 -17 15 -42 30 -54 34 -12 4 -46 23 -75 41 -29 19 -56 34 -60 34 -4
0 -37 14 -73 32 -36 17 -77 36 -91 41 -14 5 -33 13 -42 18 -9 4 -54 18 -100
29 -46 12 -87 25 -93 29 -5 4 -33 8 -62 9 -28 2 -64 6 -80 11 -39 11 -258 11
-313 0z m334 -56 c12 -3 30 -5 41 -5 17 -1 101 -20 143 -33 10 -4 9 -13 -4
-42 -20 -45 -80 -279 -88 -343 -3 -25 -8 -72 -11 -104 -3 -33 -6 -61 -8 -62
-6 -7 -96 29 -147 58 -8 4 -26 13 -40 19 -34 15 -142 67 -160 78 -8 4 -42 21
-75 36 -33 15 -69 32 -80 38 -11 6 -32 17 -48 25 -26 13 -27 16 -22 75 6 61
25 135 52 195 8 18 11 37 8 42 -3 6 -5 10 -3 11 76 18 184 27 292 22 71 -2
139 -7 150 -10z m-484 -58 c-33 -58 -53 -125 -54 -177 -1 -37 -5 -48 -17 -48
-9 0 -22 7 -29 15 -6 8 -21 17 -33 21 -28 9 -100 55 -110 71 -4 7 -15 13 -23
13 -32 0 -5 25 66 61 40 21 81 40 89 43 80 28 126 43 129 41 2 -1 -6 -20 -18
-40z m835 -34 c28 -13 66 -29 85 -37 19 -8 43 -19 52 -25 10 -5 48 -25 85 -45
38 -20 82 -46 98 -58 17 -12 60 -37 98 -55 37 -19 67 -39 68 -45 5 -55 -26
-190 -52 -228 -11 -14 -19 -35 -19 -47 0 -31 -29 -40 -131 -41 -116 -1 -299 9
-311 16 -5 3 -28 8 -51 10 -134 13 -147 23 -141 102 2 31 7 77 11 102 4 25 7
50 8 55 0 6 3 15 7 20 6 9 16 69 22 125 1 14 5 30 8 35 3 6 9 26 13 45 4 19
16 49 26 66 23 38 48 39 124 5z m648 -378 c40 -22 127 -110 127 -127 0 -9 -5
-14 -10 -11 -12 7 -109 -13 -125 -25 -5 -5 -37 -11 -70 -14 -33 -4 -80 -9
-104 -13 l-45 -6 41 49 c39 48 73 140 73 199 l0 24 46 -32 c25 -18 55 -37 67
-44z"/>
<path d="M7966 8841 c-3 -5 1 -14 9 -21 13 -10 15 -9 15 9 0 21 -14 28 -24 12z"/>
<path d="M8117 8744 c-7 -8 11 -34 23 -34 11 0 5 33 -6 37 -6 2 -13 0 -17 -3z"/>
<path d="M8242 8703 c5 -25 28 -28 28 -4 0 12 -6 21 -16 21 -9 0 -14 -7 -12
-17z"/>
<path d="M8400 8611 c0 -24 45 -79 56 -68 9 8 -29 80 -45 85 -6 2 -11 -5 -11
-17z"/>
<path d="M7210 8114 c0 -8 5 -12 10 -9 6 4 8 11 5 16 -9 14 -15 11 -15 -7z"/>
<path d="M7310 8081 c0 -11 5 -23 10 -26 6 -4 10 5 10 19 0 14 -4 26 -10 26
-5 0 -10 -9 -10 -19z"/>
<path d="M7550 8041 c0 -20 102 -53 137 -45 27 7 30 20 5 33 -22 11 -142 22
-142 12z"/>
<path d="M7240 7990 c0 -19 3 -21 12 -12 9 9 9 15 0 24 -9 9 -12 7 -12 -12z"/>
<path d="M7367 7949 c-7 -25 8 -69 23 -69 5 0 10 20 10 45 0 48 -23 64 -33 24z"/>
<path d="M8278 7929 c-26 -14 -22 -29 7 -29 18 0 25 5 25 20 0 22 -7 24 -32 9z"/>
<path d="M8056 7908 c-12 -46 4 -53 35 -15 25 29 24 37 -5 37 -16 0 -26 -7
-30 -22z"/>
<path d="M7497 7886 c3 -14 12 -31 20 -38 12 -10 14 -7 11 23 -2 21 -9 35 -19
37 -13 2 -15 -3 -12 -22z"/>
<path d="M7687 7853 c-12 -11 -7 -33 7 -33 7 0 16 9 19 20 5 19 -12 28 -26 13z"/>
<path d="M7790 7820 c-25 -25 -26 -40 -2 -40 21 0 52 29 52 48 0 19 -28 14
-50 -8z"/>
<path d="M8023 7823 c-7 -2 -13 -11 -13 -20 0 -21 44 -13 48 10 3 17 -10 21
-35 10z"/>
<path d="M7586 7791 c-4 -7 -5 -15 -2 -18 9 -9 19 4 14 18 -4 11 -6 11 -12 0z"/>
<path d="M7155 7070 c-3 -5 3 -30 15 -54 11 -25 20 -56 20 -69 0 -14 6 -30 14
-36 12 -10 17 -8 25 8 17 30 13 54 -14 104 -26 45 -49 64 -60 47z"/>
<path d="M7661 6929 c-68 -13 -113 -55 -129 -120 -8 -29 -23 -66 -34 -82 -15
-20 -17 -32 -10 -39 17 -17 40 8 48 48 3 19 10 34 15 34 5 0 9 6 9 13 1 17 31
52 58 66 12 7 51 14 85 17 76 7 99 24 69 50 -26 22 -52 25 -111 13z"/>
<path d="M7615 6252 c-55 -3 -127 -23 -143 -39 -7 -7 -20 -13 -28 -13 -8 0
-14 -3 -14 -8 0 -4 -13 -13 -29 -20 -36 -16 -162 -135 -193 -182 -42 -64 -80
-154 -86 -206 -6 -54 13 -159 37 -206 40 -79 138 -172 182 -173 3 0 21 -8 40
-17 84 -41 173 -60 260 -54 124 9 138 12 254 66 50 23 68 39 100 87 22 32 42
60 46 63 10 9 39 73 39 87 0 7 4 13 9 13 5 0 9 12 9 28 0 15 5 46 11 69 12 46
12 111 -1 119 -4 3 -8 14 -8 24 0 10 -5 31 -12 47 -6 15 -12 33 -13 39 -2 6
-18 31 -36 56 -19 25 -41 56 -49 68 -47 74 -161 137 -265 148 -38 4 -88 6
-110 4z"/>
<path d="M6010 4358 c0 -8 6 -15 13 -15 12 0 70 -23 120 -49 16 -8 34 -14 40
-14 7 0 23 -6 37 -13 14 -8 46 -19 71 -25 26 -6 55 -15 65 -18 14 -5 16 -4 8
5 -6 6 -23 14 -39 17 -15 3 -37 11 -49 19 -11 8 -27 15 -36 15 -8 0 -37 11
-63 24 -27 14 -55 22 -63 19 -8 -3 -14 -1 -14 5 0 6 -15 14 -32 17 -18 4 -39
12 -45 17 -9 8 -13 6 -13 -4z"/>
<path d="M6385 4210 c3 -5 11 -10 16 -10 6 0 7 5 4 10 -3 6 -11 10 -16 10 -6
0 -7 -4 -4 -10z"/>
<path d="M6425 4190 c3 -5 14 -10 23 -10 15 0 15 2 2 10 -20 13 -33 13 -25 0z"/>
<path d="M6068 4173 c7 -3 16 -2 19 1 4 3 -2 6 -13 5 -11 0 -14 -3 -6 -6z"/>
<path d="M6150 4150 c0 -5 5 -10 11 -10 5 0 7 5 4 10 -3 6 -8 10 -11 10 -2 0
-4 -4 -4 -10z"/>
<path d="M5998 3943 c7 -3 16 -2 19 1 4 3 -2 6 -13 5 -11 0 -14 -3 -6 -6z"/>
<path d="M6075 3922 c13 -14 65 -23 65 -11 0 5 -6 9 -12 9 -7 0 -24 3 -38 6
-18 5 -22 4 -15 -4z"/>
<path d="M7120 3870 c20 -13 33 -13 25 0 -3 6 -14 10 -23 10 -15 0 -15 -2 -2
-10z"/>
<path d="M7170 3866 c0 -12 39 -25 121 -41 46 -9 94 -21 106 -27 25 -12 39 -6
28 11 -3 6 -18 11 -33 11 -26 0 -170 32 -204 45 -10 4 -18 5 -18 1z"/>
<path d="M10953 10205 c0 -22 2 -30 4 -17 2 12 2 30 0 40 -3 9 -5 -1 -4 -23z"/>
<path d="M10951 10104 c0 -11 3 -14 6 -6 3 7 2 16 -1 19 -3 4 -6 -2 -5 -13z"/>
<path d="M10941 10064 c0 -11 3 -14 6 -6 3 7 2 16 -1 19 -3 4 -6 -2 -5 -13z"/>
<path d="M10925 10029 c-4 -6 -5 -12 -2 -15 2 -3 7 2 10 11 7 17 1 20 -8 4z"/>
<path d="M10907 9993 c-4 -3 -7 -11 -7 -17 0 -6 5 -5 12 2 6 6 9 14 7 17 -3 3
-9 2 -12 -2z"/>
<path d="M10887 9941 c-4 -17 -3 -21 5 -13 5 5 8 16 6 23 -3 8 -7 3 -11 -10z"/>
<path d="M10910 9495 c0 -8 2 -15 4 -15 2 0 6 7 10 15 3 8 1 15 -4 15 -6 0
-10 -7 -10 -15z"/>
<path d="M10866 9413 c-6 -14 -5 -15 5 -6 7 7 10 15 7 18 -3 3 -9 -2 -12 -12z"/>
<path d="M10815 9340 c-3 -5 -2 -10 4 -10 5 0 13 5 16 10 3 6 2 10 -4 10 -5 0
-13 -4 -16 -10z"/>
<path d="M10790 9305 c0 -8 2 -15 4 -15 2 0 6 7 10 15 3 8 1 15 -4 15 -6 0
-10 -7 -10 -15z"/>
<path d="M10756 9264 c-5 -14 -4 -15 9 -4 17 14 19 20 6 20 -5 0 -12 -7 -15
-16z"/>
<path d="M10720 9215 c-13 -14 -21 -27 -18 -30 2 -3 14 9 27 25 26 37 23 39
-9 5z"/>
<path d="M10651 8947 c-13 -21 -12 -21 5 -5 10 10 16 20 13 22 -3 3 -11 -5
-18 -17z"/>
<path d="M10604 8914 c-18 -14 -18 -15 4 -4 12 6 22 13 22 15 0 8 -5 6 -26
-11z"/>
<path d="M10560 8770 c0 -11 4 -20 9 -20 5 0 7 9 4 20 -3 11 -7 20 -9 20 -2 0
-4 -9 -4 -20z"/>
<path d="M6982 7658 c-13 -13 -3 -48 15 -48 8 0 12 -3 9 -8 -2 -4 13 -6 35 -4
21 2 39 5 39 7 0 1 -10 13 -23 27 -26 28 -61 40 -75 26z"/>
<path d="M8949 7543 c-13 -15 -12 -15 9 -4 23 12 28 21 13 21 -5 0 -15 -7 -22
-17z"/>
<path d="M8905 7510 c-3 -6 1 -7 9 -4 18 7 21 14 7 14 -6 0 -13 -4 -16 -10z"/>
<path d="M8705 7450 c-3 -5 -1 -10 4 -10 6 0 11 5 11 10 0 6 -2 10 -4 10 -3 0
-8 -4 -11 -10z"/>
<path d="M8751 7452 c-1 -8 -6 -10 -13 -6 -10 5 -10 4 -1 -6 15 -16 28 -8 20
12 -4 11 -6 11 -6 0z"/>
<path d="M8470 7306 c0 -2 8 -10 18 -17 15 -13 16 -12 3 4 -13 16 -21 21 -21
13z"/>
<path d="M8525 7290 c-3 -6 1 -7 9 -4 18 7 21 14 7 14 -6 0 -13 -4 -16 -10z"/>
<path d="M7270 2869 c0 -5 5 -7 10 -4 6 3 10 8 10 11 0 2 -4 4 -10 4 -5 0 -10
-5 -10 -11z"/>
<path d="M6081 2813 c0 -12 -4 -30 -7 -40 -5 -14 -4 -15 5 -7 7 6 11 24 8 40
-3 21 -4 23 -6 7z"/>
<path d="M6060 2649 c0 -5 5 -7 10 -4 6 3 10 8 10 11 0 2 -4 4 -10 4 -5 0 -10
-5 -10 -11z"/>
<path d="M5985 2610 c-16 -7 -17 -9 -3 -9 9 -1 20 4 23 9 7 11 7 11 -20 0z"/>
<path d="M5867 2599 c7 -7 15 -10 18 -7 3 3 -2 9 -12 12 -14 6 -15 5 -6 -5z"/>
<path d="M7586 2173 c-6 -14 -5 -15 5 -6 7 7 10 15 7 18 -3 3 -9 -2 -12 -12z"/>
<path d="M5 480 c3 -5 8 -10 11 -10 2 0 4 5 4 10 0 6 -5 10 -11 10 -5 0 -7 -4
-4 -10z"/>
<path d="M14985 331 c-3 -5 -1 -12 5 -16 5 -3 10 1 10 9 0 18 -6 21 -15 7z"/>
<path d="M1 132 c1 -125 2 -134 14 -107 8 17 12 42 9 57 -4 21 -2 28 10 28 9
0 16 5 16 10 0 6 10 25 23 42 16 22 18 32 10 35 -7 3 -13 11 -13 18 0 7 -16
22 -35 34 l-35 20 1 -137z"/>
<path d="M14986 181 c-4 -7 -5 -15 -2 -18 9 -9 19 4 14 18 -4 11 -6 11 -12 0z"/>
<path d="M14152 140 c-17 -28 -15 -32 8 -18 11 7 20 18 20 25 0 19 -14 16 -28
-7z"/>
<path d="M14930 100 c-14 -11 -19 -20 -12 -20 7 0 11 -4 7 -10 -3 -5 -12 -7
-20 -3 -23 8 -18 -11 10 -41 16 -17 34 -26 55 -26 27 0 30 3 30 30 0 24 -4 30
-21 30 -19 0 -21 4 -15 30 6 35 0 37 -34 10z"/>
<path d="M14295 99 c-4 -5 5 -21 19 -34 29 -27 31 -36 14 -53 -9 -9 -1 -12 35
-12 l48 0 -23 33 c-51 73 -78 92 -93 66z"/>
<path d="M117 73 c-12 -11 -8 -23 8 -23 20 0 19 -9 -2 -32 -17 -19 -16 -19 22
-16 32 2 41 7 43 25 2 16 -3 22 -20 25 -13 2 -22 9 -20 16 2 13 -20 17 -31 5z"/>
<path d="M14180 72 c0 -16 51 -44 71 -39 10 3 19 2 19 -3 0 -4 7 -10 15 -14 8
-3 15 0 15 7 0 24 -19 41 -47 43 -15 2 -38 6 -50 10 -13 3 -23 2 -23 -4z"/>
<path d="M14020 40 c0 -5 7 -10 16 -10 8 0 12 5 9 10 -3 6 -10 10 -16 10 -5 0
-9 -4 -9 -10z"/>
<path d="M14840 25 c0 -20 5 -25 25 -25 28 0 32 14 11 36 -22 21 -36 17 -36
-11z"/>
<path d="M14137 20 c-4 -16 0 -20 19 -20 26 0 30 10 12 28 -17 17 -25 15 -31
-8z"/>
</g>
</svg>
